<mxfile host="Electron" modified="2023-07-05T12:14:23.984Z" agent="Mozilla/5.0 (Windows NT 10.0; Win64; x64) AppleWebKit/537.36 (KHTML, like Gecko) draw.io/21.5.0 Chrome/112.0.5615.204 Electron/24.5.1 Safari/537.36" etag="bNpObKhhttD_U6ip0dZZ" version="21.5.0" type="device">
  <diagram name="第 1 页" id="NP47mTRYLJdj5WhKKUdk">
    <mxGraphModel dx="1834" dy="1236" grid="0" gridSize="10" guides="1" tooltips="1" connect="1" arrows="1" fold="1" page="0" pageScale="1" pageWidth="827" pageHeight="1169" math="0" shadow="0">
      <root>
        <mxCell id="0" />
        <mxCell id="1" parent="0" />
        <mxCell id="fOS1Nd0zisDhyzxXTuX5-36" value="" style="rounded=0;whiteSpace=wrap;html=1;fontSize=21;" parent="1" vertex="1">
          <mxGeometry x="1002" y="-1.5" width="207" height="58.5" as="geometry" />
        </mxCell>
        <mxCell id="fOS1Nd0zisDhyzxXTuX5-35" value="" style="rounded=0;whiteSpace=wrap;html=1;fontSize=21;" parent="1" vertex="1">
          <mxGeometry x="839" y="-3" width="157" height="60" as="geometry" />
        </mxCell>
        <mxCell id="fOS1Nd0zisDhyzxXTuX5-4" style="rounded=0;orthogonalLoop=1;jettySize=auto;html=1;exitX=0;exitY=1;exitDx=0;exitDy=0;entryX=1;entryY=0;entryDx=0;entryDy=0;fillColor=#d5e8d4;strokeColor=#82b366;fontSize=21;" parent="1" source="fOS1Nd0zisDhyzxXTuX5-1" target="fOS1Nd0zisDhyzxXTuX5-2" edge="1">
          <mxGeometry relative="1" as="geometry" />
        </mxCell>
        <mxCell id="fOS1Nd0zisDhyzxXTuX5-5" style="edgeStyle=none;rounded=0;orthogonalLoop=1;jettySize=auto;html=1;exitX=1;exitY=1;exitDx=0;exitDy=0;fillColor=#d5e8d4;strokeColor=#82b366;fontSize=21;" parent="1" source="fOS1Nd0zisDhyzxXTuX5-1" target="fOS1Nd0zisDhyzxXTuX5-3" edge="1">
          <mxGeometry relative="1" as="geometry" />
        </mxCell>
        <mxCell id="fOS1Nd0zisDhyzxXTuX5-1" value="1" style="ellipse;whiteSpace=wrap;html=1;aspect=fixed;fillColor=#d5e8d4;strokeColor=#82b366;fontSize=21;" parent="1" vertex="1">
          <mxGeometry x="343" width="80" height="80" as="geometry" />
        </mxCell>
        <mxCell id="fOS1Nd0zisDhyzxXTuX5-7" style="edgeStyle=none;rounded=0;orthogonalLoop=1;jettySize=auto;html=1;exitX=0;exitY=1;exitDx=0;exitDy=0;entryX=1;entryY=0;entryDx=0;entryDy=0;fillColor=#d5e8d4;strokeColor=#82b366;fontSize=21;" parent="1" source="fOS1Nd0zisDhyzxXTuX5-2" target="fOS1Nd0zisDhyzxXTuX5-6" edge="1">
          <mxGeometry relative="1" as="geometry" />
        </mxCell>
        <mxCell id="fOS1Nd0zisDhyzxXTuX5-2" value="2" style="ellipse;whiteSpace=wrap;html=1;aspect=fixed;fillColor=#d5e8d4;strokeColor=#82b366;fontSize=21;" parent="1" vertex="1">
          <mxGeometry x="203" y="109" width="80" height="80" as="geometry" />
        </mxCell>
        <mxCell id="fOS1Nd0zisDhyzxXTuX5-11" style="edgeStyle=none;rounded=0;orthogonalLoop=1;jettySize=auto;html=1;exitX=0;exitY=1;exitDx=0;exitDy=0;entryX=1;entryY=0;entryDx=0;entryDy=0;fillColor=#d5e8d4;strokeColor=#82b366;fontSize=21;" parent="1" source="fOS1Nd0zisDhyzxXTuX5-3" target="fOS1Nd0zisDhyzxXTuX5-10" edge="1">
          <mxGeometry relative="1" as="geometry" />
        </mxCell>
        <mxCell id="fOS1Nd0zisDhyzxXTuX5-13" style="edgeStyle=none;rounded=0;orthogonalLoop=1;jettySize=auto;html=1;exitX=1;exitY=1;exitDx=0;exitDy=0;entryX=0;entryY=0;entryDx=0;entryDy=0;fillColor=#d5e8d4;strokeColor=#82b366;fontSize=21;" parent="1" source="fOS1Nd0zisDhyzxXTuX5-3" target="fOS1Nd0zisDhyzxXTuX5-12" edge="1">
          <mxGeometry relative="1" as="geometry" />
        </mxCell>
        <mxCell id="fOS1Nd0zisDhyzxXTuX5-3" value="4" style="ellipse;whiteSpace=wrap;html=1;aspect=fixed;fillColor=#d5e8d4;strokeColor=#82b366;fontSize=21;" parent="1" vertex="1">
          <mxGeometry x="497" y="109" width="80" height="80" as="geometry" />
        </mxCell>
        <mxCell id="fOS1Nd0zisDhyzxXTuX5-6" value="3" style="ellipse;whiteSpace=wrap;html=1;aspect=fixed;fillColor=#d5e8d4;strokeColor=#82b366;fontSize=21;" parent="1" vertex="1">
          <mxGeometry x="116" y="250" width="80" height="80" as="geometry" />
        </mxCell>
        <mxCell id="fOS1Nd0zisDhyzxXTuX5-10" value="5" style="ellipse;whiteSpace=wrap;html=1;aspect=fixed;fillColor=#d5e8d4;strokeColor=#82b366;fontSize=21;" parent="1" vertex="1">
          <mxGeometry x="424" y="250" width="80" height="80" as="geometry" />
        </mxCell>
        <mxCell id="fOS1Nd0zisDhyzxXTuX5-12" value="6" style="ellipse;whiteSpace=wrap;html=1;aspect=fixed;fillColor=#d5e8d4;strokeColor=#82b366;fontSize=21;" parent="1" vertex="1">
          <mxGeometry x="594" y="250" width="80" height="80" as="geometry" />
        </mxCell>
        <mxCell id="fOS1Nd0zisDhyzxXTuX5-14" value="链式二叉树&lt;br&gt;&lt;br&gt;&lt;br&gt;增删查改没有意义&lt;br&gt;" style="text;html=1;align=center;verticalAlign=middle;resizable=0;points=[];autosize=1;strokeColor=#d6b656;fillColor=#fff2cc;" parent="1" vertex="1">
          <mxGeometry x="-69" y="127" width="114" height="70" as="geometry" />
        </mxCell>
        <mxCell id="fOS1Nd0zisDhyzxXTuX5-15" value="搜索二叉树&lt;br&gt;&lt;br&gt;左孩子节点比父节点小&lt;br&gt;右孩子节点比父节点大" style="text;html=1;align=center;verticalAlign=middle;resizable=0;points=[];autosize=1;strokeColor=#b85450;fillColor=#f8cecc;" parent="1" vertex="1">
          <mxGeometry x="-81" y="609" width="138" height="70" as="geometry" />
        </mxCell>
        <mxCell id="fOS1Nd0zisDhyzxXTuX5-16" style="rounded=0;orthogonalLoop=1;jettySize=auto;html=1;exitX=0;exitY=1;exitDx=0;exitDy=0;entryX=1;entryY=0;entryDx=0;entryDy=0;fillColor=#dae8fc;strokeColor=#6c8ebf;fontSize=21;" parent="1" source="fOS1Nd0zisDhyzxXTuX5-18" target="fOS1Nd0zisDhyzxXTuX5-21" edge="1">
          <mxGeometry relative="1" as="geometry" />
        </mxCell>
        <mxCell id="fOS1Nd0zisDhyzxXTuX5-17" style="edgeStyle=none;rounded=0;orthogonalLoop=1;jettySize=auto;html=1;exitX=1;exitY=1;exitDx=0;exitDy=0;fillColor=#dae8fc;strokeColor=#6c8ebf;fontSize=21;" parent="1" source="fOS1Nd0zisDhyzxXTuX5-18" target="fOS1Nd0zisDhyzxXTuX5-24" edge="1">
          <mxGeometry relative="1" as="geometry" />
        </mxCell>
        <mxCell id="fOS1Nd0zisDhyzxXTuX5-18" value="12" style="ellipse;whiteSpace=wrap;html=1;aspect=fixed;fillColor=#dae8fc;strokeColor=#6c8ebf;fontSize=21;" parent="1" vertex="1">
          <mxGeometry x="362" y="451" width="80" height="80" as="geometry" />
        </mxCell>
        <mxCell id="fOS1Nd0zisDhyzxXTuX5-19" style="edgeStyle=none;rounded=0;orthogonalLoop=1;jettySize=auto;html=1;exitX=0;exitY=1;exitDx=0;exitDy=0;entryX=1;entryY=0;entryDx=0;entryDy=0;fillColor=#dae8fc;strokeColor=#6c8ebf;fontSize=21;" parent="1" source="fOS1Nd0zisDhyzxXTuX5-21" target="fOS1Nd0zisDhyzxXTuX5-25" edge="1">
          <mxGeometry relative="1" as="geometry" />
        </mxCell>
        <mxCell id="fOS1Nd0zisDhyzxXTuX5-20" style="edgeStyle=none;rounded=0;orthogonalLoop=1;jettySize=auto;html=1;exitX=1;exitY=1;exitDx=0;exitDy=0;entryX=0;entryY=0;entryDx=0;entryDy=0;fillColor=#dae8fc;strokeColor=#6c8ebf;fontSize=21;" parent="1" source="fOS1Nd0zisDhyzxXTuX5-21" target="fOS1Nd0zisDhyzxXTuX5-26" edge="1">
          <mxGeometry relative="1" as="geometry" />
        </mxCell>
        <mxCell id="fOS1Nd0zisDhyzxXTuX5-21" value="5" style="ellipse;whiteSpace=wrap;html=1;aspect=fixed;fillColor=#1ba1e2;strokeColor=#006EAF;fontSize=21;fontColor=#ffffff;" parent="1" vertex="1">
          <mxGeometry x="215" y="560" width="80" height="80" as="geometry" />
        </mxCell>
        <mxCell id="fOS1Nd0zisDhyzxXTuX5-22" style="edgeStyle=none;rounded=0;orthogonalLoop=1;jettySize=auto;html=1;exitX=0;exitY=1;exitDx=0;exitDy=0;entryX=1;entryY=0;entryDx=0;entryDy=0;fillColor=#dae8fc;strokeColor=#6c8ebf;fontSize=21;" parent="1" source="fOS1Nd0zisDhyzxXTuX5-24" target="fOS1Nd0zisDhyzxXTuX5-27" edge="1">
          <mxGeometry relative="1" as="geometry" />
        </mxCell>
        <mxCell id="fOS1Nd0zisDhyzxXTuX5-23" style="edgeStyle=none;rounded=0;orthogonalLoop=1;jettySize=auto;html=1;exitX=1;exitY=1;exitDx=0;exitDy=0;entryX=0;entryY=0;entryDx=0;entryDy=0;fillColor=#dae8fc;strokeColor=#6c8ebf;fontSize=21;" parent="1" source="fOS1Nd0zisDhyzxXTuX5-24" target="fOS1Nd0zisDhyzxXTuX5-28" edge="1">
          <mxGeometry relative="1" as="geometry" />
        </mxCell>
        <mxCell id="fOS1Nd0zisDhyzxXTuX5-24" value="18" style="ellipse;whiteSpace=wrap;html=1;aspect=fixed;fillColor=#dae8fc;strokeColor=#6c8ebf;fontSize=21;" parent="1" vertex="1">
          <mxGeometry x="516" y="560" width="80" height="80" as="geometry" />
        </mxCell>
        <mxCell id="fOS1Nd0zisDhyzxXTuX5-25" value="2" style="ellipse;whiteSpace=wrap;html=1;aspect=fixed;fillColor=#1ba1e2;strokeColor=#006EAF;fontSize=21;fontColor=#ffffff;" parent="1" vertex="1">
          <mxGeometry x="135" y="701" width="80" height="80" as="geometry" />
        </mxCell>
        <mxCell id="fOS1Nd0zisDhyzxXTuX5-26" value="9" style="ellipse;whiteSpace=wrap;html=1;aspect=fixed;fillColor=#1ba1e2;strokeColor=#006EAF;fontSize=21;fontColor=#ffffff;" parent="1" vertex="1">
          <mxGeometry x="293" y="697" width="80" height="80" as="geometry" />
        </mxCell>
        <mxCell id="fOS1Nd0zisDhyzxXTuX5-30" style="edgeStyle=none;rounded=0;orthogonalLoop=1;jettySize=auto;html=1;exitX=1;exitY=1;exitDx=0;exitDy=0;entryX=0;entryY=0;entryDx=0;entryDy=0;fontSize=21;" parent="1" source="fOS1Nd0zisDhyzxXTuX5-27" target="fOS1Nd0zisDhyzxXTuX5-29" edge="1">
          <mxGeometry relative="1" as="geometry" />
        </mxCell>
        <mxCell id="fOS1Nd0zisDhyzxXTuX5-27" value="15" style="ellipse;whiteSpace=wrap;html=1;aspect=fixed;fillColor=#dae8fc;strokeColor=#6c8ebf;fontSize=21;" parent="1" vertex="1">
          <mxGeometry x="443" y="701" width="80" height="80" as="geometry" />
        </mxCell>
        <mxCell id="fOS1Nd0zisDhyzxXTuX5-28" value="19" style="ellipse;whiteSpace=wrap;html=1;aspect=fixed;fillColor=#dae8fc;strokeColor=#6c8ebf;fontSize=21;" parent="1" vertex="1">
          <mxGeometry x="613" y="701" width="80" height="80" as="geometry" />
        </mxCell>
        <mxCell id="fOS1Nd0zisDhyzxXTuX5-29" value="17" style="ellipse;whiteSpace=wrap;html=1;aspect=fixed;fillColor=#dae8fc;strokeColor=#6c8ebf;fontSize=21;" parent="1" vertex="1">
          <mxGeometry x="520" y="829" width="80" height="80" as="geometry" />
        </mxCell>
        <mxCell id="fOS1Nd0zisDhyzxXTuX5-32" value="增删查改有价值" style="text;html=1;align=center;verticalAlign=middle;resizable=0;points=[];autosize=1;strokeColor=#82b366;fillColor=#d5e8d4;fontSize=21;" parent="1" vertex="1">
          <mxGeometry x="-81" y="774" width="165" height="37" as="geometry" />
        </mxCell>
        <mxCell id="fOS1Nd0zisDhyzxXTuX5-33" value="前序遍历：1 2 3 null null&amp;nbsp; null&amp;nbsp; 4 5 null null 6 null null&amp;nbsp;" style="text;html=1;align=center;verticalAlign=middle;resizable=0;points=[];autosize=1;strokeColor=none;fillColor=none;fontSize=21;" parent="1" vertex="1">
          <mxGeometry x="711" y="21.5" width="509" height="37" as="geometry" />
        </mxCell>
        <mxCell id="fOS1Nd0zisDhyzxXTuX5-37" value="左子树" style="text;html=1;align=center;verticalAlign=middle;resizable=0;points=[];autosize=1;strokeColor=none;fillColor=none;fontSize=21;" parent="1" vertex="1">
          <mxGeometry x="839" y="-9" width="81" height="37" as="geometry" />
        </mxCell>
        <mxCell id="fOS1Nd0zisDhyzxXTuX5-38" value="右子树" style="text;html=1;align=center;verticalAlign=middle;resizable=0;points=[];autosize=1;strokeColor=none;fillColor=none;fontSize=21;" parent="1" vertex="1">
          <mxGeometry x="1000" y="-7" width="81" height="37" as="geometry" />
        </mxCell>
        <mxCell id="X1O_YbJFaXOvdE2I3xh--1" style="rounded=0;orthogonalLoop=1;jettySize=auto;html=1;exitX=0;exitY=1;exitDx=0;exitDy=0;entryX=1;entryY=0;entryDx=0;entryDy=0;fillColor=#d5e8d4;strokeColor=#82b366;fontSize=21;" parent="1" source="X1O_YbJFaXOvdE2I3xh--3" target="X1O_YbJFaXOvdE2I3xh--5" edge="1">
          <mxGeometry relative="1" as="geometry" />
        </mxCell>
        <mxCell id="X1O_YbJFaXOvdE2I3xh--2" style="edgeStyle=none;rounded=0;orthogonalLoop=1;jettySize=auto;html=1;exitX=1;exitY=1;exitDx=0;exitDy=0;fillColor=#d5e8d4;strokeColor=#82b366;fontSize=21;" parent="1" source="X1O_YbJFaXOvdE2I3xh--3" target="X1O_YbJFaXOvdE2I3xh--8" edge="1">
          <mxGeometry relative="1" as="geometry" />
        </mxCell>
        <mxCell id="X1O_YbJFaXOvdE2I3xh--3" value="1" style="ellipse;whiteSpace=wrap;html=1;aspect=fixed;fillColor=#d5e8d4;strokeColor=#82b366;fontSize=21;" parent="1" vertex="1">
          <mxGeometry x="380" y="1177" width="80" height="80" as="geometry" />
        </mxCell>
        <mxCell id="X1O_YbJFaXOvdE2I3xh--4" style="edgeStyle=none;rounded=0;orthogonalLoop=1;jettySize=auto;html=1;exitX=0;exitY=1;exitDx=0;exitDy=0;entryX=1;entryY=0;entryDx=0;entryDy=0;fillColor=#d5e8d4;strokeColor=#82b366;fontSize=21;" parent="1" source="X1O_YbJFaXOvdE2I3xh--5" target="X1O_YbJFaXOvdE2I3xh--9" edge="1">
          <mxGeometry relative="1" as="geometry" />
        </mxCell>
        <mxCell id="X1O_YbJFaXOvdE2I3xh--5" value="2" style="ellipse;whiteSpace=wrap;html=1;aspect=fixed;fillColor=#d5e8d4;strokeColor=#82b366;fontSize=21;" parent="1" vertex="1">
          <mxGeometry x="240" y="1286" width="80" height="80" as="geometry" />
        </mxCell>
        <mxCell id="X1O_YbJFaXOvdE2I3xh--6" style="edgeStyle=none;rounded=0;orthogonalLoop=1;jettySize=auto;html=1;exitX=0;exitY=1;exitDx=0;exitDy=0;entryX=1;entryY=0;entryDx=0;entryDy=0;fillColor=#d5e8d4;strokeColor=#82b366;fontSize=21;" parent="1" source="X1O_YbJFaXOvdE2I3xh--8" target="X1O_YbJFaXOvdE2I3xh--10" edge="1">
          <mxGeometry relative="1" as="geometry" />
        </mxCell>
        <mxCell id="X1O_YbJFaXOvdE2I3xh--7" style="edgeStyle=none;rounded=0;orthogonalLoop=1;jettySize=auto;html=1;exitX=1;exitY=1;exitDx=0;exitDy=0;entryX=0;entryY=0;entryDx=0;entryDy=0;fillColor=#d5e8d4;strokeColor=#82b366;fontSize=21;" parent="1" source="X1O_YbJFaXOvdE2I3xh--8" target="X1O_YbJFaXOvdE2I3xh--11" edge="1">
          <mxGeometry relative="1" as="geometry" />
        </mxCell>
        <mxCell id="X1O_YbJFaXOvdE2I3xh--8" value="4" style="ellipse;whiteSpace=wrap;html=1;aspect=fixed;fillColor=#d5e8d4;strokeColor=#82b366;fontSize=21;" parent="1" vertex="1">
          <mxGeometry x="534" y="1286" width="80" height="80" as="geometry" />
        </mxCell>
        <mxCell id="X1O_YbJFaXOvdE2I3xh--9" value="3" style="ellipse;whiteSpace=wrap;html=1;aspect=fixed;fillColor=#d5e8d4;strokeColor=#82b366;fontSize=21;" parent="1" vertex="1">
          <mxGeometry x="153" y="1427" width="80" height="80" as="geometry" />
        </mxCell>
        <mxCell id="X1O_YbJFaXOvdE2I3xh--10" value="5" style="ellipse;whiteSpace=wrap;html=1;aspect=fixed;fillColor=#d5e8d4;strokeColor=#82b366;fontSize=21;" parent="1" vertex="1">
          <mxGeometry x="461" y="1427" width="80" height="80" as="geometry" />
        </mxCell>
        <mxCell id="X1O_YbJFaXOvdE2I3xh--11" value="6" style="ellipse;whiteSpace=wrap;html=1;aspect=fixed;fillColor=#d5e8d4;strokeColor=#82b366;fontSize=21;" parent="1" vertex="1">
          <mxGeometry x="631" y="1427" width="80" height="80" as="geometry" />
        </mxCell>
        <mxCell id="cl1yeob81A0OVZzyDPzD-1" value="层序遍历" style="text;html=1;align=center;verticalAlign=middle;resizable=0;points=[];autosize=1;strokeColor=none;fillColor=none;fontSize=19;" parent="1" vertex="1">
          <mxGeometry x="-56" y="1792" width="94" height="35" as="geometry" />
        </mxCell>
        <mxCell id="cl1yeob81A0OVZzyDPzD-2" style="rounded=0;orthogonalLoop=1;jettySize=auto;html=1;exitX=0;exitY=1;exitDx=0;exitDy=0;entryX=1;entryY=0;entryDx=0;entryDy=0;fillColor=#d5e8d4;strokeColor=#82b366;fontSize=21;" parent="1" source="cl1yeob81A0OVZzyDPzD-4" target="cl1yeob81A0OVZzyDPzD-6" edge="1">
          <mxGeometry relative="1" as="geometry" />
        </mxCell>
        <mxCell id="cl1yeob81A0OVZzyDPzD-3" style="edgeStyle=none;rounded=0;orthogonalLoop=1;jettySize=auto;html=1;exitX=1;exitY=1;exitDx=0;exitDy=0;fillColor=#d5e8d4;strokeColor=#82b366;fontSize=21;" parent="1" source="cl1yeob81A0OVZzyDPzD-4" target="cl1yeob81A0OVZzyDPzD-9" edge="1">
          <mxGeometry relative="1" as="geometry" />
        </mxCell>
        <mxCell id="cl1yeob81A0OVZzyDPzD-4" value="1" style="ellipse;whiteSpace=wrap;html=1;aspect=fixed;fillColor=#d5e8d4;strokeColor=#82b366;fontSize=21;" parent="1" vertex="1">
          <mxGeometry x="396" y="1687" width="80" height="80" as="geometry" />
        </mxCell>
        <mxCell id="cl1yeob81A0OVZzyDPzD-5" style="edgeStyle=none;rounded=0;orthogonalLoop=1;jettySize=auto;html=1;exitX=0;exitY=1;exitDx=0;exitDy=0;entryX=1;entryY=0;entryDx=0;entryDy=0;fillColor=#d5e8d4;strokeColor=#82b366;fontSize=21;" parent="1" source="cl1yeob81A0OVZzyDPzD-6" target="cl1yeob81A0OVZzyDPzD-10" edge="1">
          <mxGeometry relative="1" as="geometry" />
        </mxCell>
        <mxCell id="cl1yeob81A0OVZzyDPzD-13" style="rounded=0;orthogonalLoop=1;jettySize=auto;html=1;exitX=1;exitY=1;exitDx=0;exitDy=0;entryX=0;entryY=0;entryDx=0;entryDy=0;fontSize=19;fillColor=#d5e8d4;strokeColor=#82b366;" parent="1" source="cl1yeob81A0OVZzyDPzD-6" target="cl1yeob81A0OVZzyDPzD-11" edge="1">
          <mxGeometry relative="1" as="geometry" />
        </mxCell>
        <mxCell id="cl1yeob81A0OVZzyDPzD-6" value="2" style="ellipse;whiteSpace=wrap;html=1;aspect=fixed;fillColor=#d5e8d4;strokeColor=#82b366;fontSize=21;" parent="1" vertex="1">
          <mxGeometry x="256" y="1796" width="80" height="80" as="geometry" />
        </mxCell>
        <mxCell id="cl1yeob81A0OVZzyDPzD-8" style="edgeStyle=none;rounded=0;orthogonalLoop=1;jettySize=auto;html=1;exitX=1;exitY=1;exitDx=0;exitDy=0;entryX=0;entryY=0;entryDx=0;entryDy=0;fillColor=#d5e8d4;strokeColor=#82b366;fontSize=21;" parent="1" source="cl1yeob81A0OVZzyDPzD-9" target="cl1yeob81A0OVZzyDPzD-12" edge="1">
          <mxGeometry relative="1" as="geometry" />
        </mxCell>
        <mxCell id="cl1yeob81A0OVZzyDPzD-9" value="4" style="ellipse;whiteSpace=wrap;html=1;aspect=fixed;fillColor=#d5e8d4;strokeColor=#82b366;fontSize=21;" parent="1" vertex="1">
          <mxGeometry x="550" y="1796" width="80" height="80" as="geometry" />
        </mxCell>
        <mxCell id="cl1yeob81A0OVZzyDPzD-10" value="3" style="ellipse;whiteSpace=wrap;html=1;aspect=fixed;fillColor=#d5e8d4;strokeColor=#82b366;fontSize=21;" parent="1" vertex="1">
          <mxGeometry x="169" y="1937" width="80" height="80" as="geometry" />
        </mxCell>
        <mxCell id="cl1yeob81A0OVZzyDPzD-11" value="5" style="ellipse;whiteSpace=wrap;html=1;aspect=fixed;fillColor=#d5e8d4;strokeColor=#82b366;fontSize=21;" parent="1" vertex="1">
          <mxGeometry x="343" y="1939" width="80" height="80" as="geometry" />
        </mxCell>
        <mxCell id="cl1yeob81A0OVZzyDPzD-12" value="6" style="ellipse;whiteSpace=wrap;html=1;aspect=fixed;fillColor=#d5e8d4;strokeColor=#82b366;fontSize=21;" parent="1" vertex="1">
          <mxGeometry x="646" y="1937" width="80" height="80" as="geometry" />
        </mxCell>
        <mxCell id="cl1yeob81A0OVZzyDPzD-15" value="1 2 4 3 5 null 6 null null null null" style="text;html=1;align=center;verticalAlign=middle;resizable=0;points=[];autosize=1;strokeColor=none;fillColor=none;fontSize=19;" parent="1" vertex="1">
          <mxGeometry x="749" y="1777" width="282" height="35" as="geometry" />
        </mxCell>
        <mxCell id="cl1yeob81A0OVZzyDPzD-16" style="rounded=0;orthogonalLoop=1;jettySize=auto;html=1;exitX=0;exitY=1;exitDx=0;exitDy=0;entryX=1;entryY=0;entryDx=0;entryDy=0;fillColor=#d5e8d4;strokeColor=#82b366;fontSize=21;" parent="1" source="cl1yeob81A0OVZzyDPzD-18" target="cl1yeob81A0OVZzyDPzD-21" edge="1">
          <mxGeometry relative="1" as="geometry" />
        </mxCell>
        <mxCell id="cl1yeob81A0OVZzyDPzD-17" style="edgeStyle=none;rounded=0;orthogonalLoop=1;jettySize=auto;html=1;exitX=1;exitY=1;exitDx=0;exitDy=0;fillColor=#d5e8d4;strokeColor=#82b366;fontSize=21;" parent="1" source="cl1yeob81A0OVZzyDPzD-18" target="cl1yeob81A0OVZzyDPzD-23" edge="1">
          <mxGeometry relative="1" as="geometry" />
        </mxCell>
        <mxCell id="cl1yeob81A0OVZzyDPzD-18" value="1" style="ellipse;whiteSpace=wrap;html=1;aspect=fixed;fillColor=#d5e8d4;strokeColor=#82b366;fontSize=21;" parent="1" vertex="1">
          <mxGeometry x="410" y="2083" width="80" height="80" as="geometry" />
        </mxCell>
        <mxCell id="cl1yeob81A0OVZzyDPzD-19" style="edgeStyle=none;rounded=0;orthogonalLoop=1;jettySize=auto;html=1;exitX=0;exitY=1;exitDx=0;exitDy=0;entryX=1;entryY=0;entryDx=0;entryDy=0;fillColor=#d5e8d4;strokeColor=#82b366;fontSize=21;" parent="1" source="cl1yeob81A0OVZzyDPzD-21" target="cl1yeob81A0OVZzyDPzD-24" edge="1">
          <mxGeometry relative="1" as="geometry" />
        </mxCell>
        <mxCell id="cl1yeob81A0OVZzyDPzD-20" style="rounded=0;orthogonalLoop=1;jettySize=auto;html=1;exitX=1;exitY=1;exitDx=0;exitDy=0;entryX=0;entryY=0;entryDx=0;entryDy=0;fontSize=19;fillColor=#d5e8d4;strokeColor=#82b366;" parent="1" source="cl1yeob81A0OVZzyDPzD-21" target="cl1yeob81A0OVZzyDPzD-25" edge="1">
          <mxGeometry relative="1" as="geometry" />
        </mxCell>
        <mxCell id="cl1yeob81A0OVZzyDPzD-21" value="2" style="ellipse;whiteSpace=wrap;html=1;aspect=fixed;fillColor=#d5e8d4;strokeColor=#82b366;fontSize=21;" parent="1" vertex="1">
          <mxGeometry x="270" y="2192" width="80" height="80" as="geometry" />
        </mxCell>
        <mxCell id="cl1yeob81A0OVZzyDPzD-27" style="edgeStyle=none;rounded=0;orthogonalLoop=1;jettySize=auto;html=1;exitX=0;exitY=1;exitDx=0;exitDy=0;fontSize=19;" parent="1" source="cl1yeob81A0OVZzyDPzD-23" target="cl1yeob81A0OVZzyDPzD-26" edge="1">
          <mxGeometry relative="1" as="geometry" />
        </mxCell>
        <mxCell id="cl1yeob81A0OVZzyDPzD-23" value="4" style="ellipse;whiteSpace=wrap;html=1;aspect=fixed;fillColor=#d5e8d4;strokeColor=#82b366;fontSize=21;" parent="1" vertex="1">
          <mxGeometry x="564" y="2192" width="80" height="80" as="geometry" />
        </mxCell>
        <mxCell id="cl1yeob81A0OVZzyDPzD-24" value="3" style="ellipse;whiteSpace=wrap;html=1;aspect=fixed;fillColor=#d5e8d4;strokeColor=#82b366;fontSize=21;" parent="1" vertex="1">
          <mxGeometry x="183" y="2333" width="80" height="80" as="geometry" />
        </mxCell>
        <mxCell id="cl1yeob81A0OVZzyDPzD-25" value="5" style="ellipse;whiteSpace=wrap;html=1;aspect=fixed;fillColor=#d5e8d4;strokeColor=#82b366;fontSize=21;" parent="1" vertex="1">
          <mxGeometry x="357" y="2335" width="80" height="80" as="geometry" />
        </mxCell>
        <mxCell id="cl1yeob81A0OVZzyDPzD-26" value="6" style="ellipse;whiteSpace=wrap;html=1;aspect=fixed;fillColor=#d5e8d4;strokeColor=#82b366;fontSize=21;" parent="1" vertex="1">
          <mxGeometry x="484" y="2333" width="80" height="80" as="geometry" />
        </mxCell>
        <mxCell id="cl1yeob81A0OVZzyDPzD-28" value="1 2 4 3 5 6 null null null null null null&amp;nbsp;" style="text;html=1;align=center;verticalAlign=middle;resizable=0;points=[];autosize=1;strokeColor=none;fillColor=none;fontSize=19;" parent="1" vertex="1">
          <mxGeometry x="739" y="2292" width="322" height="35" as="geometry" />
        </mxCell>
        <mxCell id="cl1yeob81A0OVZzyDPzD-29" value="" style="endArrow=classic;html=1;rounded=0;fontSize=19;" parent="1" edge="1">
          <mxGeometry width="50" height="50" relative="1" as="geometry">
            <mxPoint x="798" y="1872" as="sourcePoint" />
            <mxPoint x="848" y="1822" as="targetPoint" />
          </mxGeometry>
        </mxCell>
        <mxCell id="cl1yeob81A0OVZzyDPzD-30" value="第一次null后有非null，不是完全二叉树" style="text;html=1;align=center;verticalAlign=middle;resizable=0;points=[];autosize=1;strokeColor=#b85450;fillColor=#f8cecc;fontSize=19;" parent="1" vertex="1">
          <mxGeometry x="850" y="1852" width="343" height="35" as="geometry" />
        </mxCell>
        <mxCell id="cl1yeob81A0OVZzyDPzD-35" value="" style="endArrow=classic;html=1;rounded=0;fontSize=19;" parent="1" edge="1">
          <mxGeometry width="50" height="50" relative="1" as="geometry">
            <mxPoint x="809" y="2383" as="sourcePoint" />
            <mxPoint x="859" y="2333" as="targetPoint" />
          </mxGeometry>
        </mxCell>
        <mxCell id="cl1yeob81A0OVZzyDPzD-36" value="第一次null后都是null，是完全二叉树" style="text;html=1;align=center;verticalAlign=middle;resizable=0;points=[];autosize=1;strokeColor=#b85450;fillColor=#f8cecc;fontSize=19;" parent="1" vertex="1">
          <mxGeometry x="871" y="2363" width="324" height="35" as="geometry" />
        </mxCell>
        <mxCell id="cl1yeob81A0OVZzyDPzD-38" style="rounded=0;orthogonalLoop=1;jettySize=auto;html=1;exitX=0;exitY=1;exitDx=0;exitDy=0;entryX=1;entryY=0;entryDx=0;entryDy=0;fillColor=#d5e8d4;strokeColor=#82b366;fontSize=21;" parent="1" source="cl1yeob81A0OVZzyDPzD-40" target="cl1yeob81A0OVZzyDPzD-43" edge="1">
          <mxGeometry relative="1" as="geometry" />
        </mxCell>
        <mxCell id="cl1yeob81A0OVZzyDPzD-39" style="edgeStyle=none;rounded=0;orthogonalLoop=1;jettySize=auto;html=1;exitX=1;exitY=1;exitDx=0;exitDy=0;fillColor=#d5e8d4;strokeColor=#82b366;fontSize=21;" parent="1" source="cl1yeob81A0OVZzyDPzD-40" target="cl1yeob81A0OVZzyDPzD-45" edge="1">
          <mxGeometry relative="1" as="geometry" />
        </mxCell>
        <mxCell id="cl1yeob81A0OVZzyDPzD-40" value="1" style="ellipse;whiteSpace=wrap;html=1;aspect=fixed;fillColor=#d5e8d4;strokeColor=#82b366;fontSize=21;" parent="1" vertex="1">
          <mxGeometry x="423" y="2543" width="80" height="80" as="geometry" />
        </mxCell>
        <mxCell id="cl1yeob81A0OVZzyDPzD-41" style="edgeStyle=none;rounded=0;orthogonalLoop=1;jettySize=auto;html=1;exitX=0;exitY=1;exitDx=0;exitDy=0;entryX=1;entryY=0;entryDx=0;entryDy=0;fillColor=#d5e8d4;strokeColor=#82b366;fontSize=21;" parent="1" source="cl1yeob81A0OVZzyDPzD-43" target="cl1yeob81A0OVZzyDPzD-46" edge="1">
          <mxGeometry relative="1" as="geometry" />
        </mxCell>
        <mxCell id="cl1yeob81A0OVZzyDPzD-42" style="rounded=0;orthogonalLoop=1;jettySize=auto;html=1;exitX=1;exitY=1;exitDx=0;exitDy=0;entryX=0;entryY=0;entryDx=0;entryDy=0;fontSize=19;fillColor=#d5e8d4;strokeColor=#82b366;" parent="1" source="cl1yeob81A0OVZzyDPzD-43" target="cl1yeob81A0OVZzyDPzD-47" edge="1">
          <mxGeometry relative="1" as="geometry" />
        </mxCell>
        <mxCell id="cl1yeob81A0OVZzyDPzD-43" value="2" style="ellipse;whiteSpace=wrap;html=1;aspect=fixed;fillColor=#d5e8d4;strokeColor=#82b366;fontSize=21;" parent="1" vertex="1">
          <mxGeometry x="283" y="2652" width="80" height="80" as="geometry" />
        </mxCell>
        <mxCell id="cl1yeob81A0OVZzyDPzD-44" style="edgeStyle=none;rounded=0;orthogonalLoop=1;jettySize=auto;html=1;exitX=0;exitY=1;exitDx=0;exitDy=0;fontSize=19;" parent="1" source="cl1yeob81A0OVZzyDPzD-45" target="cl1yeob81A0OVZzyDPzD-48" edge="1">
          <mxGeometry relative="1" as="geometry" />
        </mxCell>
        <mxCell id="cl1yeob81A0OVZzyDPzD-49" style="edgeStyle=none;rounded=0;orthogonalLoop=1;jettySize=auto;html=1;exitX=1;exitY=1;exitDx=0;exitDy=0;fontSize=19;entryX=0;entryY=0;entryDx=0;entryDy=0;" parent="1" source="cl1yeob81A0OVZzyDPzD-45" target="cl1yeob81A0OVZzyDPzD-51" edge="1">
          <mxGeometry relative="1" as="geometry">
            <mxPoint x="691" y="2811.7142857142862" as="targetPoint" />
          </mxGeometry>
        </mxCell>
        <mxCell id="cl1yeob81A0OVZzyDPzD-45" value="4" style="ellipse;whiteSpace=wrap;html=1;aspect=fixed;fillColor=#d5e8d4;strokeColor=#82b366;fontSize=21;" parent="1" vertex="1">
          <mxGeometry x="577" y="2652" width="80" height="80" as="geometry" />
        </mxCell>
        <mxCell id="cl1yeob81A0OVZzyDPzD-46" value="3" style="ellipse;whiteSpace=wrap;html=1;aspect=fixed;fillColor=#d5e8d4;strokeColor=#82b366;fontSize=21;" parent="1" vertex="1">
          <mxGeometry x="196" y="2793" width="80" height="80" as="geometry" />
        </mxCell>
        <mxCell id="cl1yeob81A0OVZzyDPzD-47" value="7" style="ellipse;whiteSpace=wrap;html=1;aspect=fixed;fillColor=#d5e8d4;strokeColor=#82b366;fontSize=21;" parent="1" vertex="1">
          <mxGeometry x="370" y="2795" width="80" height="80" as="geometry" />
        </mxCell>
        <mxCell id="cl1yeob81A0OVZzyDPzD-48" value="5" style="ellipse;whiteSpace=wrap;html=1;aspect=fixed;fillColor=#d5e8d4;strokeColor=#82b366;fontSize=21;" parent="1" vertex="1">
          <mxGeometry x="497" y="2793" width="80" height="80" as="geometry" />
        </mxCell>
        <mxCell id="cl1yeob81A0OVZzyDPzD-50" style="edgeStyle=none;rounded=0;orthogonalLoop=1;jettySize=auto;html=1;exitX=0;exitY=0.5;exitDx=0;exitDy=0;fontSize=19;" parent="1" source="cl1yeob81A0OVZzyDPzD-48" target="cl1yeob81A0OVZzyDPzD-48" edge="1">
          <mxGeometry relative="1" as="geometry" />
        </mxCell>
        <mxCell id="cl1yeob81A0OVZzyDPzD-51" value="6" style="ellipse;whiteSpace=wrap;html=1;aspect=fixed;fillColor=#d5e8d4;strokeColor=#82b366;fontSize=21;" parent="1" vertex="1">
          <mxGeometry x="657" y="2793" width="80" height="80" as="geometry" />
        </mxCell>
      </root>
    </mxGraphModel>
  </diagram>
</mxfile>
